<svg xmlns="http://www.w3.org/2000/svg" viewBox="0 0 24 24" width="24" height="24">
  <path d="M12 0C5.37 0 0 5.37 0 12c0 5.3 3.438 9.8 8.205 11.385.6.113.82-.263.82-.582 0-.288-.012-1.244-.018-2.26-3.338.726-4.042-1.614-4.042-1.614-.546-1.387-1.334-1.756-1.334-1.756-1.09-.745.082-.73.082-.73 1.204.084 1.837 1.235 1.837 1.235 1.07 1.834 2.807 1.305 3.492.998.107-.776.418-1.305.762-1.606-2.665-.304-5.467-1.332-5.467-5.933 0-1.31.47-2.38 1.235-3.22-.123-.303-.535-1.524.117-3.176 0 0 1.007-.323 3.3 1.23.96-.267 1.987-.4 3.008-.405 1.02.005 2.048.138 3.008.405 2.29-1.553 3.296-1.23 3.296-1.23.653 1.653.24 2.873.118 3.176.767.84 1.233 1.91 1.233 3.22 0 4.61-2.806 5.625-5.478 5.922.43.37.813 1.102.813 2.222 0 1.606-.015 2.896-.015 3.292 0 .322.216.698.825.579C20.565 21.796 24 17.296 24 12c0-6.63-5.37-12-12-12z"/>
</svg>
